<svg id="Layer_1" data-name="Layer 1" xmlns="http://www.w3.org/2000/svg" viewBox="0 0 1920 600"><defs><style>.cls-1{fill:#f5e9ce;stroke:#d69a37;stroke-miterlimit:10;stroke-width:3px;}</style></defs><title>chart</title><path class="cls-1" d="M1.83,452.28,13,450.38a57.8,57.8,0,0,1,10.51-.79l49.48.84a56.78,56.78,0,0,0,8.64-.51l54.81-7.42,42.93-3.63a56.85,56.85,0,0,0,29.13-11l25.83-19.22a57,57,0,0,1,45.33-10.07l19,3.86a57.12,57.12,0,0,0,29.68-1.86l26.23-8.88a57.21,57.21,0,0,1,36.61,0l20.69,7a57.16,57.16,0,0,0,39.78-1.17l31-12.58a57,57,0,0,1,17.61-4.06l36.07-2.44a57,57,0,0,0,25.76-8.16l33.2-20.22a57,57,0,0,1,30.59-8.28l34.49.58a57.25,57.25,0,0,0,15.9-2l29.68-8a57.07,57.07,0,0,1,41.41,4.53l15,7.87a57.12,57.12,0,0,0,49.45,1.69l24.84-10.92a57.05,57.05,0,0,1,19.11-4.7l43.51-2.94A56.9,56.9,0,0,0,910.4,326l37.35-10.11a57.21,57.21,0,0,1,32.41.75l26.93,8.66a57.24,57.24,0,0,0,32.42.75l33.07-8.95a57.24,57.24,0,0,1,19.76-1.78l36.31,3.07a57.08,57.08,0,0,0,24.74-3.38l44.84-16.69q2.3-.86,4.5-1.9l49.74-23.56a56,56,0,0,0,13.09-8.6l41.15-36.2a56.65,56.65,0,0,1,28-13.28l25.88-4.38a56.6,56.6,0,0,0,29.84-15l31.76-30.62a56.67,56.67,0,0,1,35.53-15.69l33.23-2.25a57.53,57.53,0,0,0,10.19-1.62l47.18-12a57,57,0,0,1,14.06-1.76H1604a57,57,0,0,0,19.91-3.58l35.15-13.08a57.05,57.05,0,0,1,29.46-2.78l23,3.88a57.08,57.08,0,0,0,39.16-7.48l28.25-17.21A57,57,0,0,1,1806.62,83l40.32-1.36a57.2,57.2,0,0,0,7.61-.77l48.68-8.23a56.72,56.72,0,0,1,13.4-.67h0C1946.12,74,1969,98,1969,127.08V552.24c0,30.52-25.18,55.26-56.23,55.26H7.3c-33,0-58.91-27.79-56-60.09l4.07-45.51C-42.42,476.91-23.33,456.53,1.83,452.28Z"/></svg>