<svg id="Layer_1" data-name="Layer 1" xmlns="http://www.w3.org/2000/svg" viewBox="0 0 1920 600"><defs><style>.cls-1{fill:#f5e9ce;stroke:#d69a37;stroke-miterlimit:10;stroke-width:3px;}</style></defs><title>chart</title><path class="cls-1" d="M-247.79,452.28l14.17-1.9a91.81,91.81,0,0,1,13.27-.79l62.53.84a90.43,90.43,0,0,0,10.92-.51l69.26-7.42,54.25-3.63a83.94,83.94,0,0,0,36.81-11l32.64-19.22c16.33-9.62,37.21-13.29,57.28-10.07l24,3.86a90.45,90.45,0,0,0,37.51-1.86L198,391.69a90.49,90.49,0,0,1,46.27,0l26.14,7a90.17,90.17,0,0,0,50.27-1.17l39.15-12.58a88.25,88.25,0,0,1,22.25-4.06l45.57-2.44a85.84,85.84,0,0,0,32.55-8.16l42-20.22a87,87,0,0,1,38.66-8.28l43.58.58a90.46,90.46,0,0,0,20.09-2l37.51-8a89.4,89.4,0,0,1,52.33,4.53l19,7.87a89.47,89.47,0,0,0,62.49,1.69l31.38-10.92a88,88,0,0,1,24.15-4.7l55-2.94a89.28,89.28,0,0,0,14-1.85l47.2-10.11a90.65,90.65,0,0,1,41,.75l34,8.66a90.65,90.65,0,0,0,41,.75l41.79-8.95a90.73,90.73,0,0,1,25-1.78l45.88,3.07a89.76,89.76,0,0,0,31.26-3.38L1264,298.35q2.9-.86,5.69-1.9l62.85-23.56a74.63,74.63,0,0,0,16.54-8.6l52-36.2a80.8,80.8,0,0,1,35.34-13.28l32.7-4.38c14.24-1.91,27.4-7.15,37.71-15L1547,164.79c12.08-9.22,28-14.79,44.88-15.69l42-2.25a90.51,90.51,0,0,0,12.88-1.62l59.61-12a90.14,90.14,0,0,1,17.77-1.76h52.67a89.22,89.22,0,0,0,25.16-3.58l44.42-13.08a90,90,0,0,1,37.22-2.78l29,3.88a88.37,88.37,0,0,0,49.49-7.48l35.7-17.21a86.35,86.35,0,0,1,35-8.26l51-1.36a90.62,90.62,0,0,0,9.61-.77l61.51-8.23a90.31,90.31,0,0,1,16.93-.67h0C2209.08,74,2238,98,2238,127.08V552.24c0,30.52-31.81,55.26-71.06,55.26H-240.87c-41.7,0-74.44-27.79-70.79-60.09l5.14-45.51C-303.7,476.91-279.58,456.53-247.79,452.28Z"/></svg>