<svg id="Layer_1" data-name="Layer 1" xmlns="http://www.w3.org/2000/svg" viewBox="0 0 1920 600"><defs><style>.cls-1{fill:#f5e9ce;stroke:#d69a37;stroke-miterlimit:10;stroke-width:3px;}</style></defs><title>chart</title><path class="cls-1" d="M-601.07,470.87l18.3-1.66a168.5,168.5,0,0,1,17.15-.7l80.77.73c4.71.05,9.43-.1,14.1-.44l89.48-6.53,70.07-3.2c17.26-.79,33.75-4.14,47.55-9.69l42.16-16.92c21.1-8.46,48.07-11.69,74-8.86l31.05,3.4A170.26,170.26,0,0,0-68,425.36l42.8-7.81a169.52,169.52,0,0,1,59.77,0l33.77,6.16a169,169,0,0,0,64.94-1l50.57-11.07A163.08,163.08,0,0,1,212.6,408l58.87-2.15a154.18,154.18,0,0,0,42-7.18l54.2-17.8c15-4.92,32.32-7.45,49.94-7.29l56.29.52a170.05,170.05,0,0,0,25.95-1.74l48.46-7.07c22.66-3.31,46.85-1.89,67.59,4l24.52,6.93c25,7.08,54.83,7.63,80.72,1.49l40.54-9.62a161.1,161.1,0,0,1,31.2-4.13l71-2.59A167.31,167.31,0,0,0,882,359.75l61-8.9a170.33,170.33,0,0,1,52.91.66l44,7.62a170.64,170.64,0,0,0,52.91.67l54-7.88a170.34,170.34,0,0,1,32.25-1.57l59.27,2.7a168.06,168.06,0,0,0,40.38-3l73.2-14.69q3.75-.75,7.35-1.67L1440.39,313a117.84,117.84,0,0,0,21.37-7.58l67.17-31.85c12.84-6.1,28.66-10.15,45.65-11.7l42.24-3.85c18.4-1.68,35.39-6.29,48.72-13.22l51.84-27c15.61-8.11,36.17-13,58-13.8l54.24-2c5.62-.21,11.19-.69,16.65-1.43l77-10.54a169.16,169.16,0,0,1,23-1.54h68a165.72,165.72,0,0,0,32.51-3.16l57.37-11.51a169.38,169.38,0,0,1,48.09-2.45l37.5,3.42c22.11,2,44.85-.33,63.92-6.59l46.12-15.14a155.7,155.7,0,0,1,45.2-7.27l65.81-1.2q6.25-.12,12.42-.68l79.45-7.24a173.41,173.41,0,0,1,21.88-.6h0c48.14,1.76,85.49,23,85.49,48.53V558.86c0,26.86-41.1,48.64-91.79,48.64H-592.14c-53.86,0-96.15-24.46-91.44-52.89l6.64-40.06C-673.29,492.56-642.14,474.62-601.07,470.87Z"/></svg>