<?xml version="1.0" encoding="utf-8"?>
<!-- Generator: Adobe Illustrator 26.0.1, SVG Export Plug-In . SVG Version: 6.00 Build 0)  -->
<svg version="1.1" id="Layer_1" xmlns="http://www.w3.org/2000/svg" xmlns:xlink="http://www.w3.org/1999/xlink" x="0px" y="0px"
	 viewBox="0 0 857.4 252.52" style="enable-background:new 0 0 857.4 252.52;" xml:space="preserve">
<style type="text/css">
	.st0{fill:#FFFFFF;}
</style>
<g>
	<path class="st0" d="M139.4,99.02C139.4,44.42,94.98,0,40.38,0H0v129.72h8.3c14.18,0,27.52,5.52,37.55,15.55
		c9.06,9.06,14.4,20.83,15.35,33.47c-6.78,1.77-13.76,2.67-20.82,2.67H0v71.1h8.3c18.62,0,36.12-7.25,49.29-20.42
		c11.21-11.21,18.16-25.71,19.93-41.3c12.22-4.95,23.5-12.41,32.88-21.79C129.1,150.32,139.4,125.46,139.4,99.02z M16.61,113.6
		v-41.6c10.92-1.16,31.4-1.19,46.22,11.76c17.09,14.94,24.16,45.89,11.4,76.44c-3.4-9.93-9-19.04-16.64-26.68
		C46.4,122.35,32.08,115.43,16.61,113.6z M45.85,220.36c-8.05,8.04-18.21,13.19-29.24,14.91v-37.25h23.77
		c6.52,0,12.99-0.63,19.33-1.89C57.37,205.23,52.63,213.58,45.85,220.36z M90.41,164.42c13.51-34.36,7.83-71.76-16.66-93.15
		C55.06,54.93,31.04,53.98,16.61,55.3V16.61h23.77c45.45,0,82.42,36.97,82.42,82.42c0,22-8.57,42.69-24.14,58.26
		C96.08,159.86,93.3,162.21,90.41,164.42z"/>
	<g>
		<g>
			<path class="st0" d="M217.85,179.16h-20.72V55.21h49.93c11.68,0,21.69,4.16,30.01,12.48c8.32,8.32,12.48,18.39,12.48,30.19
				c0,11.68-4.16,21.69-12.48,30.01c-8.32,8.32-18.33,12.48-30.01,12.48h-9.21l-13.81-20.72h23.02c6.02,0,11.15-2.13,15.4-6.37
				c4.25-4.25,6.37-9.38,6.37-15.4c0-6.14-2.12-11.34-6.37-15.59c-4.25-4.25-9.38-6.37-15.4-6.37h-29.22V179.16z"/>
			<path class="st0" d="M379.9,179.16h-20.72v-12.57c-6.85,8.38-16.23,12.57-28.15,12.57c-10.63,0-19.66-4.25-27.1-12.75
				c-7.44-8.5-11.15-18.77-11.15-30.81s3.72-22.31,11.15-30.81c7.44-8.5,16.47-12.75,27.1-12.75c11.92,0,21.3,4.19,28.15,12.57
				V92.04h20.72V179.16z M336.34,158.44c6.49-0.24,11.89-2.48,16.2-6.73c4.31-4.25,6.52-9.62,6.64-16.11
				c-0.12-6.49-2.33-11.89-6.64-16.2c-4.31-4.31-9.71-6.52-16.2-6.64c-6.49,0.12-11.86,2.33-16.11,6.64
				c-4.25,4.31-6.5,9.71-6.73,16.2c0.24,6.49,2.48,11.86,6.73,16.11C324.48,155.96,329.85,158.2,336.34,158.44z"/>
			<path class="st0" d="M442.8,212.98h-25.5v-20.72h25.5c3.66-0.12,6.73-1.41,9.21-3.9c2.48-2.48,3.78-5.61,3.89-9.38v-11.51
				c-3.66,4.02-7.79,6.97-12.39,8.85c-4.61,1.89-8.74,2.84-12.39,2.84c-5.67,0-10.63-1-14.88-3.01
				c-13.93-6.49-20.89-20.01-20.89-40.55V92.04h20.72v43.56c0,15.11,5.96,22.73,17.89,22.84c5.19,0,10.15-2.18,14.88-6.55
				c4.72-4.36,7.08-9.8,7.08-16.29V92.04h20.72v86.94c0,9.45-3.31,17.47-9.92,24.08S452.12,212.98,442.8,212.98z"/>
			<path class="st0" d="M483.47,194.39l13.64-13.46l0.35,0.18c4.48,4.13,9.8,7.2,15.94,9.21c6.14,2.01,12.28,3.01,18.42,3.01
				c1.3,0,2.98-0.09,5.05-0.27c2.06-0.18,4.1-0.54,6.1-1.07c2.01-0.53,3.75-1.3,5.23-2.3c1.47-1,2.21-2.28,2.21-3.81
				c0-1.65-0.71-2.95-2.13-3.89c-1.42-0.95-3.19-1.72-5.31-2.31c-2.12-0.47-4.25-0.74-6.37-0.8c-2.12-0.06-3.83-0.09-5.13-0.09
				c-4.14,0-8.29,0.24-12.48,0.7c-4.19,0.47-8.24,1.36-12.13,2.66h-0.17l-11.86-11.68l8.32-24.79c-3.42-2.95-6.08-6.29-7.97-10.01
				c-1.89-3.72-2.84-7.82-2.84-12.31c0-4.96,1.07-9.41,3.19-13.37c2.13-3.95,4.96-7.32,8.5-10.09c3.54-2.77,7.55-4.9,12.04-6.37
				c4.48-1.48,9.03-2.21,13.63-2.21c8.14,0,16.26,0.03,24.35,0.09c8.09,0.06,16.2,0.09,24.35,0.09h0.36v19.12l-17.71-2.65
				c3.9,4.6,5.84,9.91,5.84,15.93c0,4.61-1.07,8.83-3.19,12.66c-2.13,3.84-4.9,7.14-8.32,9.91c-3.42,2.78-7.29,4.93-11.6,6.46
				c-4.31,1.54-8.65,2.31-13.02,2.31c-4.13,0-7.91-0.59-11.33-1.77l-2.31,6.73c4.72-0.95,9.27-1.42,13.64-1.42
				c4.25,0,8.73,0.39,13.45,1.15c4.72,0.77,9.03,2.18,12.93,4.25c3.9,2.07,7.11,4.81,9.65,8.24s3.81,7.79,3.81,13.1
				s-1.18,9.8-3.54,13.46c-2.36,3.65-5.43,6.61-9.21,8.85c-3.78,2.24-8,3.86-12.66,4.86c-4.66,1-9.29,1.51-13.9,1.51
				c-4.25,0-8.59-0.42-13.02-1.24c-4.43-0.83-8.71-2.04-12.84-3.63c-4.13-1.6-8.06-3.63-11.78-6.11c-3.72-2.48-7.06-5.31-10.01-8.5
				L483.47,194.39z M514.1,123.91c0,2.01,0.5,3.84,1.5,5.49c1,1.65,2.24,3.04,3.72,4.16c1.48,1.12,3.13,1.98,4.96,2.56
				c1.83,0.59,3.63,0.89,5.4,0.89c1.78,0,3.6-0.29,5.49-0.89c1.88-0.59,3.57-1.45,5.04-2.56c1.48-1.12,2.71-2.51,3.72-4.16
				c1-1.65,1.5-3.48,1.5-5.49c0-2.12-0.47-4.01-1.41-5.67c-0.95-1.65-2.19-3.07-3.72-4.25c-1.54-1.18-3.25-2.06-5.14-2.66
				c-1.89-0.59-3.72-0.88-5.49-0.88c-1.77,0-3.57,0.29-5.4,0.88c-1.83,0.59-3.51,1.48-5.04,2.66c-1.54,1.18-2.78,2.6-3.72,4.25
				C514.58,119.9,514.1,121.79,514.1,123.91z"/>
			<path class="st0" d="M626.23,179.16c-12.04,0-22.31-4.25-30.81-12.75c-8.5-8.5-12.75-18.77-12.75-30.81s4.25-22.31,12.75-30.81
				c8.5-8.5,18.77-12.75,30.81-12.75c10.62,0,19.89,3.34,27.8,10c7.9,6.67,12.92,15.14,15.05,25.41c0.47,2.71,0.71,5.43,0.71,8.14
				v2.13c-0.12,1.77-0.36,3.54-0.71,5.31h-64.45l0.35,0.71c4.01,9.33,11.1,14.23,21.25,14.7c5.67-0.12,10.62-1.95,14.87-5.49h25.14
				c-3.42,7.79-8.7,14.11-15.85,18.95C643.25,176.74,635.19,179.16,626.23,179.16z M647.65,127.45
				c-4.13-9.33-11.27-14.23-21.42-14.7c-10.16,0.47-17.24,5.37-21.25,14.7H647.65z"/>
			<path class="st0" d="M720.6,179.16c-12.04,0-22.31-4.25-30.81-12.75c-8.5-8.5-12.75-18.77-12.75-30.81s4.25-22.31,12.75-30.81
				c8.5-8.5,18.77-12.75,30.81-12.75c12.04,0,22.31,4.25,30.81,12.75c8.5,8.5,12.75,18.77,12.75,30.81s-4.25,22.31-12.75,30.81
				C742.91,174.91,732.64,179.16,720.6,179.16z M720.6,158.44c6.49-0.24,11.89-2.48,16.2-6.73c4.31-4.25,6.52-9.62,6.64-16.11
				c0-6.37-2.21-11.78-6.64-16.2c-4.43-4.43-9.83-6.64-16.2-6.64c-6.26,0-11.63,2.21-16.12,6.64c-4.49,4.43-6.73,9.83-6.73,16.2
				c0,6.26,2.24,11.63,6.73,16.11C708.97,156.2,714.34,158.44,720.6,158.44z"/>
			<path class="st0" d="M857.4,179.16h-20.72V135.6c0-15.23-5.96-22.84-17.89-22.84c-5.19,0-10.15,2.16-14.87,6.46
				c-4.73,4.31-7.08,9.77-7.08,16.38v43.56h-20.72V92.04h20.72v11.68c3.65-4.01,7.79-6.96,12.39-8.85c4.61-1.88,8.74-2.83,12.4-2.83
				c5.78,0,10.74,0.95,14.87,2.83c13.93,6.5,20.89,20.07,20.89,40.73V179.16z"/>
		</g>
	</g>
</g>
</svg>
